<?xml version="1.0" encoding="UTF-8" standalone="no"?>
<!-- Created with Inkscape (http://www.inkscape.org/) -->
<svg
   xmlns:dc="http://purl.org/dc/elements/1.1/"
   xmlns:cc="http://creativecommons.org/ns#"
   xmlns:rdf="http://www.w3.org/1999/02/22-rdf-syntax-ns#"
   xmlns:svg="http://www.w3.org/2000/svg"
   xmlns="http://www.w3.org/2000/svg"
   xmlns:sodipodi="http://sodipodi.sourceforge.net/DTD/sodipodi-0.dtd"
   xmlns:inkscape="http://www.inkscape.org/namespaces/inkscape"
   id="svg3993"
   sodipodi:version="0.32"
   inkscape:version="0.46"
   width="369"
   height="358"
   version="1.0"
   sodipodi:docname="Apollonian_circles.svg"
   inkscape:output_extension="org.inkscape.output.svg.inkscape">
  <metadata
     id="metadata3998">
    <rdf:RDF>
      <cc:Work
         rdf:about="">
        <dc:format>image/svg+xml</dc:format>
        <dc:type
           rdf:resource="http://purl.org/dc/dcmitype/StillImage" />
      </cc:Work>
    </rdf:RDF>
  </metadata>
  <defs
     id="defs3996">
    <inkscape:perspective
       sodipodi:type="inkscape:persp3d"
       inkscape:vp_x="0 : 526.18109 : 1"
       inkscape:vp_y="0 : 1000 : 0"
       inkscape:vp_z="744.09448 : 526.18109 : 1"
       inkscape:persp3d-origin="372.04724 : 350.78739 : 1"
       id="perspective4000" />
  </defs>
  <sodipodi:namedview
     inkscape:window-height="968"
     inkscape:window-width="1280"
     inkscape:pageshadow="2"
     inkscape:pageopacity="0.0"
     guidetolerance="10.0"
     gridtolerance="10.0"
     objecttolerance="10.0"
     borderopacity="1.0"
     bordercolor="#666666"
     pagecolor="#ffffff"
     id="base"
     showgrid="false"
     showguides="true"
     inkscape:guide-bbox="true"
     inkscape:zoom="0.90509668"
     inkscape:cx="125.74558"
     inkscape:cy="161.19959"
     inkscape:window-x="-4"
     inkscape:window-y="-4"
     inkscape:current-layer="svg3993" />
  <path
     transform="translate(7.1815533,-4.4194174)"
     d="M 267.09853,105.26456 A 89.493202,89.493202 0 1 1 88.112129,105.26456 A 89.493202,89.493202 0 1 1 267.09853,105.26456 z"
     sodipodi:ry="89.493202"
     sodipodi:rx="89.493202"
     sodipodi:cy="105.26456"
     sodipodi:cx="177.60533"
     id="path4701"
     style="opacity:1;fill:none;fill-opacity:1;fill-rule:evenodd;stroke:#ff0000;stroke-width:1;stroke-linecap:square;stroke-linejoin:round;stroke-miterlimit:4;stroke-dasharray:none;stroke-dashoffset:0;stroke-opacity:1"
     sodipodi:type="arc" />
  <path
     sodipodi:type="arc"
     style="opacity:1;fill:none;fill-opacity:1;fill-rule:evenodd;stroke:#ff0000;stroke-width:1;stroke-linecap:square;stroke-linejoin:round;stroke-miterlimit:4;stroke-dasharray:none;stroke-dashoffset:0;stroke-opacity:1"
     id="path4703"
     sodipodi:cx="177.60533"
     sodipodi:cy="105.26456"
     sodipodi:rx="65.738831"
     sodipodi:ry="65.738831"
     d="M 243.34416,105.26456 A 65.738831,65.738831 0 1 1 111.8665,105.26456 A 65.738831,65.738831 0 1 1 243.34416,105.26456 z"
     transform="translate(7.1815533,24.859223)" />
  <path
     transform="matrix(0.8144366,0,0,0.8144366,40.414822,61.655825)"
     d="M 243.34416,105.26456 A 65.738831,65.738831 0 1 1 111.8665,105.26456 A 65.738831,65.738831 0 1 1 243.34416,105.26456 z"
     sodipodi:ry="65.738831"
     sodipodi:rx="65.738831"
     sodipodi:cy="105.26456"
     sodipodi:cx="177.60533"
     id="path4705"
     style="opacity:1;fill:none;fill-opacity:1;fill-rule:evenodd;stroke:#ff0000;stroke-width:1.22784266000000010;stroke-linecap:square;stroke-linejoin:round;stroke-miterlimit:4;stroke-dasharray:none;stroke-dashoffset:0;stroke-opacity:1"
     sodipodi:type="arc" />
  <path
     sodipodi:type="arc"
     style="opacity:1;fill:none;fill-opacity:1;fill-rule:evenodd;stroke:#ff0000;stroke-width:1.38739839999999990;stroke-linecap:square;stroke-linejoin:round;stroke-miterlimit:4;stroke-dasharray:none;stroke-dashoffset:0;stroke-opacity:1"
     id="path4707"
     sodipodi:cx="177.60533"
     sodipodi:cy="105.26456"
     sodipodi:rx="65.738831"
     sodipodi:ry="65.738831"
     d="M 243.34416,105.26456 A 65.738831,65.738831 0 1 1 111.8665,105.26456 A 65.738831,65.738831 0 1 1 243.34416,105.26456 z"
     transform="matrix(0.7207735,0,0,0.7207735,57.049891,84.08295)" />
  <path
     transform="matrix(0.6688009,0,0,0.6688009,66.280498,99.91183)"
     d="M 243.34416,105.26456 A 65.738831,65.738831 0 1 1 111.8665,105.26456 A 65.738831,65.738831 0 1 1 243.34416,105.26456 z"
     sodipodi:ry="65.738831"
     sodipodi:rx="65.738831"
     sodipodi:cy="105.26456"
     sodipodi:cx="177.60533"
     id="path4709"
     style="opacity:1;fill:none;fill-opacity:1;fill-rule:evenodd;stroke:#ff0000;stroke-width:1.49521330000000010;stroke-linecap:square;stroke-linejoin:round;stroke-miterlimit:4;stroke-dasharray:none;stroke-dashoffset:0;stroke-opacity:1"
     sodipodi:type="arc" />
  <path
     sodipodi:type="arc"
     style="opacity:1;fill:none;fill-opacity:1;fill-rule:evenodd;stroke:#ff0000;stroke-width:1.49521327000000000;stroke-linecap:square;stroke-linejoin:round;stroke-miterlimit:4;stroke-dasharray:none;stroke-dashoffset:0;stroke-opacity:1"
     id="path4711"
     sodipodi:cx="177.60533"
     sodipodi:cy="105.26456"
     sodipodi:rx="65.738831"
     sodipodi:ry="65.738831"
     d="M 243.34416,105.26456 A 65.738831,65.738831 0 1 1 111.8665,105.26456 A 65.738831,65.738831 0 1 1 243.34416,105.26456 z"
     transform="matrix(0.6542604,0,0,0.6542604,68.862972,110.69558)" />
  <path
     sodipodi:type="arc"
     style="opacity:1;fill:none;fill-opacity:1;fill-rule:evenodd;stroke:#ff0000;stroke-width:1;stroke-linecap:square;stroke-linejoin:round;stroke-miterlimit:4;stroke-dasharray:none;stroke-dashoffset:0;stroke-opacity:1"
     id="path4743"
     sodipodi:cx="177.60533"
     sodipodi:cy="105.26456"
     sodipodi:rx="89.493202"
     sodipodi:ry="89.493202"
     d="M 267.09853,105.26456 A 89.493202,89.493202 0 1 1 88.112129,105.26456 A 89.493202,89.493202 0 1 1 267.09853,105.26456 z"
     transform="matrix(1,0,0,-1,7.1815533,363.73778)" />
  <path
     transform="matrix(1,0,0,-1,7.1815533,334.45914)"
     d="M 243.34416,105.26456 A 65.738831,65.738831 0 1 1 111.8665,105.26456 A 65.738831,65.738831 0 1 1 243.34416,105.26456 z"
     sodipodi:ry="65.738831"
     sodipodi:rx="65.738831"
     sodipodi:cy="105.26456"
     sodipodi:cx="177.60533"
     id="path4745"
     style="opacity:1;fill:none;fill-opacity:1;fill-rule:evenodd;stroke:#ff0000;stroke-width:1;stroke-linecap:square;stroke-linejoin:round;stroke-miterlimit:4;stroke-dasharray:none;stroke-dashoffset:0;stroke-opacity:1"
     sodipodi:type="arc" />
  <path
     sodipodi:type="arc"
     style="opacity:1;fill:none;fill-opacity:1;fill-rule:evenodd;stroke:#ff0000;stroke-width:1.22784268999999990;stroke-linecap:square;stroke-linejoin:round;stroke-miterlimit:4;stroke-dasharray:none;stroke-dashoffset:0;stroke-opacity:1"
     id="path4747"
     sodipodi:cx="177.60533"
     sodipodi:cy="105.26456"
     sodipodi:rx="65.738831"
     sodipodi:ry="65.738831"
     d="M 243.34416,105.26456 A 65.738831,65.738831 0 1 1 111.8665,105.26456 A 65.738831,65.738831 0 1 1 243.34416,105.26456 z"
     transform="matrix(0.8144366,0,0,-0.8144366,40.414822,297.66254)" />
  <path
     transform="matrix(0.7207735,0,0,-0.7207735,57.049891,275.23541)"
     d="M 243.34416,105.26456 A 65.738831,65.738831 0 1 1 111.8665,105.26456 A 65.738831,65.738831 0 1 1 243.34416,105.26456 z"
     sodipodi:ry="65.738831"
     sodipodi:rx="65.738831"
     sodipodi:cy="105.26456"
     sodipodi:cx="177.60533"
     id="path4749"
     style="opacity:1;fill:none;fill-opacity:1;fill-rule:evenodd;stroke:#ff0000;stroke-width:1.38739835999999990;stroke-linecap:square;stroke-linejoin:round;stroke-miterlimit:4;stroke-dasharray:none;stroke-dashoffset:0;stroke-opacity:1"
     sodipodi:type="arc" />
  <path
     sodipodi:type="arc"
     style="opacity:1;fill:none;fill-opacity:1;fill-rule:evenodd;stroke:#ff0000;stroke-width:1.49521327000000000;stroke-linecap:square;stroke-linejoin:round;stroke-miterlimit:4;stroke-dasharray:none;stroke-dashoffset:0;stroke-opacity:1"
     id="path4751"
     sodipodi:cx="177.60533"
     sodipodi:cy="105.26456"
     sodipodi:rx="65.738831"
     sodipodi:ry="65.738831"
     d="M 243.34416,105.26456 A 65.738831,65.738831 0 1 1 111.8665,105.26456 A 65.738831,65.738831 0 1 1 243.34416,105.26456 z"
     transform="matrix(0.6688009,0,0,-0.6688009,66.280498,259.40653)" />
  <path
     sodipodi:type="arc"
     style="opacity:1;fill:none;fill-opacity:1;fill-rule:evenodd;stroke:#0000ff;stroke-width:1;stroke-linecap:square;stroke-linejoin:round;stroke-miterlimit:4;stroke-dasharray:none;stroke-dashoffset:0;stroke-opacity:1"
     id="path4755"
     sodipodi:cx="141.97379"
     sodipodi:cy="179.70413"
     sodipodi:rx="11.877184"
     sodipodi:ry="11.877184"
     d="M 153.85097,179.70413 A 11.877184,11.877184 0 1 1 130.0966,179.70413 A 11.877184,11.877184 0 1 1 153.85097,179.70413 z"
     transform="translate(-2.0716019,0)" />
  <path
     transform="matrix(0.9757322,0,0,0.9757322,0.1308344,4.3610315)"
     d="M 158.5466,179.70413 A 16.572815,16.572815 0 1 1 125.40097,179.70413 A 16.572815,16.572815 0 1 1 158.5466,179.70413 z"
     sodipodi:ry="16.572815"
     sodipodi:rx="16.572815"
     sodipodi:cy="179.70413"
     sodipodi:cx="141.97379"
     id="path4757"
     style="opacity:1;fill:none;fill-opacity:1;fill-rule:evenodd;stroke:#0000ff;stroke-width:1.02487137000000010;stroke-linecap:square;stroke-linejoin:round;stroke-miterlimit:4;stroke-dasharray:none;stroke-dashoffset:0;stroke-opacity:1"
     sodipodi:type="arc" />
  <path
     sodipodi:type="arc"
     style="opacity:1;fill:none;fill-opacity:1;fill-rule:evenodd;stroke:#0000ff;stroke-width:0.73985838999999998;stroke-linecap:square;stroke-linejoin:round;stroke-miterlimit:4;stroke-dasharray:none;stroke-dashoffset:0;stroke-opacity:1"
     id="path4759"
     sodipodi:cx="141.97379"
     sodipodi:cy="179.70413"
     sodipodi:rx="16.572815"
     sodipodi:ry="16.572815"
     d="M 158.5466,179.70413 A 16.572815,16.572815 0 1 1 125.40097,179.70413 A 16.572815,16.572815 0 1 1 158.5466,179.70413 z"
     transform="matrix(1.35161,0,0,1.35161,-56.065145,-63.185757)" />
  <path
     transform="matrix(1.9140554,0,0,1.9140554,-140.75139,-164.25952)"
     d="M 158.5466,179.70413 A 16.572815,16.572815 0 1 1 125.40097,179.70413 A 16.572815,16.572815 0 1 1 158.5466,179.70413 z"
     sodipodi:ry="16.572815"
     sodipodi:rx="16.572815"
     sodipodi:cy="179.70413"
     sodipodi:cx="141.97379"
     id="path4761"
     style="opacity:1;fill:none;fill-opacity:1;fill-rule:evenodd;stroke:#0000ff;stroke-width:0.52245092000000004;stroke-linecap:square;stroke-linejoin:round;stroke-miterlimit:4;stroke-dasharray:none;stroke-dashoffset:0;stroke-opacity:1"
     sodipodi:type="arc" />
  <path
     sodipodi:type="arc"
     style="opacity:1;fill:none;fill-opacity:1;fill-rule:evenodd;stroke:#0000ff;stroke-width:0.34402781999999998;stroke-linecap:square;stroke-linejoin:round;stroke-miterlimit:4;stroke-dasharray:none;stroke-dashoffset:0;stroke-opacity:1"
     id="path4763"
     sodipodi:cx="141.97379"
     sodipodi:cy="179.70413"
     sodipodi:rx="16.572815"
     sodipodi:ry="16.572815"
     d="M 158.5466,179.70413 A 16.572815,16.572815 0 1 1 125.40097,179.70413 A 16.572815,16.572815 0 1 1 158.5466,179.70413 z"
     transform="matrix(2.9067417,0,0,2.9067417,-292.59727,-342.64936)" />
  <path
     transform="matrix(4.960426,0,0,4.960426,-612.47849,-711.70491)"
     d="M 158.5466,179.70413 A 16.572815,16.572815 0 1 1 125.40097,179.70413 A 16.572815,16.572815 0 1 1 158.5466,179.70413 z"
     sodipodi:ry="16.572815"
     sodipodi:rx="16.572815"
     sodipodi:cy="179.70413"
     sodipodi:cx="141.97379"
     id="path4765"
     style="opacity:1;fill:none;fill-opacity:1;fill-rule:evenodd;stroke:#0000ff;stroke-width:0.20159558999999999;stroke-linecap:square;stroke-linejoin:round;stroke-miterlimit:4;stroke-dasharray:none;stroke-dashoffset:0;stroke-opacity:1"
     sodipodi:type="arc" />
  <path
     transform="matrix(-1,0,0,1,371.36917,0)"
     d="M 153.85097,179.70413 A 11.877184,11.877184 0 1 1 130.0966,179.70413 A 11.877184,11.877184 0 1 1 153.85097,179.70413 z"
     sodipodi:ry="11.877184"
     sodipodi:rx="11.877184"
     sodipodi:cy="179.70413"
     sodipodi:cx="141.97379"
     id="path4767"
     style="opacity:1;fill:none;fill-opacity:1;fill-rule:evenodd;stroke:#0000ff;stroke-width:1;stroke-linecap:square;stroke-linejoin:round;stroke-miterlimit:4;stroke-dasharray:none;stroke-dashoffset:0;stroke-opacity:1"
     sodipodi:type="arc" />
  <path
     sodipodi:type="arc"
     style="opacity:1;fill:none;fill-opacity:1;fill-rule:evenodd;stroke:#0000ff;stroke-width:1.02487135;stroke-linecap:square;stroke-linejoin:round;stroke-miterlimit:4;stroke-dasharray:none;stroke-dashoffset:0;stroke-opacity:1"
     id="path4769"
     sodipodi:cx="141.97379"
     sodipodi:cy="179.70413"
     sodipodi:rx="16.572815"
     sodipodi:ry="16.572815"
     d="M 158.5466,179.70413 A 16.572815,16.572815 0 1 1 125.40097,179.70413 A 16.572815,16.572815 0 1 1 158.5466,179.70413 z"
     transform="matrix(-0.9757322,0,0,0.9757322,369.16674,4.3610315)" />
  <path
     transform="matrix(-1.35161,0,0,1.35161,425.36272,-63.185757)"
     d="M 158.5466,179.70413 A 16.572815,16.572815 0 1 1 125.40097,179.70413 A 16.572815,16.572815 0 1 1 158.5466,179.70413 z"
     sodipodi:ry="16.572815"
     sodipodi:rx="16.572815"
     sodipodi:cy="179.70413"
     sodipodi:cx="141.97379"
     id="path4771"
     style="opacity:1;fill:none;fill-opacity:1;fill-rule:evenodd;stroke:#0000ff;stroke-width:0.73985839;stroke-linecap:square;stroke-linejoin:round;stroke-miterlimit:4;stroke-dasharray:none;stroke-dashoffset:0;stroke-opacity:1"
     sodipodi:type="arc" />
  <path
     sodipodi:type="arc"
     style="opacity:1;fill:none;fill-opacity:1;fill-rule:evenodd;stroke:#0000ff;stroke-width:0.52245092;stroke-linecap:square;stroke-linejoin:round;stroke-miterlimit:4;stroke-dasharray:none;stroke-dashoffset:0;stroke-opacity:1"
     id="path4773"
     sodipodi:cx="141.97379"
     sodipodi:cy="179.70413"
     sodipodi:rx="16.572815"
     sodipodi:ry="16.572815"
     d="M 158.5466,179.70413 A 16.572815,16.572815 0 1 1 125.40097,179.70413 A 16.572815,16.572815 0 1 1 158.5466,179.70413 z"
     transform="matrix(-1.9140554,0,0,1.9140554,510.04896,-164.25952)" />
  <path
     transform="matrix(-2.9067417,0,0,2.9067417,661.89484,-342.64936)"
     d="M 158.5466,179.70413 A 16.572815,16.572815 0 1 1 125.40097,179.70413 A 16.572815,16.572815 0 1 1 158.5466,179.70413 z"
     sodipodi:ry="16.572815"
     sodipodi:rx="16.572815"
     sodipodi:cy="179.70413"
     sodipodi:cx="141.97379"
     id="path4775"
     style="opacity:1;fill:none;fill-opacity:1;fill-rule:evenodd;stroke:#0000ff;stroke-width:0.34402782;stroke-linecap:square;stroke-linejoin:round;stroke-miterlimit:4;stroke-dasharray:none;stroke-dashoffset:0;stroke-opacity:1"
     sodipodi:type="arc" />
  <path
     sodipodi:type="arc"
     style="opacity:1;fill:none;fill-opacity:1;fill-rule:evenodd;stroke:#0000ff;stroke-width:0.20159559;stroke-linecap:square;stroke-linejoin:round;stroke-miterlimit:4;stroke-dasharray:none;stroke-dashoffset:0;stroke-opacity:1"
     id="path4777"
     sodipodi:cx="141.97379"
     sodipodi:cy="179.70413"
     sodipodi:rx="16.572815"
     sodipodi:ry="16.572815"
     d="M 158.5466,179.70413 A 16.572815,16.572815 0 1 1 125.40097,179.70413 A 16.572815,16.572815 0 1 1 158.5466,179.70413 z"
     transform="matrix(-4.960426,0,0,4.960426,981.77606,-711.70491)" />
</svg>
